<svg aria-hidden="true" style="position: absolute; width: 0; height: 0; overflow: hidden;" version="1.1" xmlns="http://www.w3.org/2000/svg" xmlns:xlink="http://www.w3.org/1999/xlink">
<defs>
<symbol id="icon-black-logo" viewBox="0 0 144 32">
<path fill="#171819" style="fill: var(--color1, #171819)" d="M7.526 18.31l-1.385 2.606v8.756h-4.48v-28.509h4.48v12.422l5.865-12.422h4.48l-6.231 12.707 6.231 15.802h-4.602l-4.358-11.363zM22.811 23.116c0 1.032 0.21 1.758 0.631 2.179s0.984 0.631 1.69 0.631 1.269-0.21 1.69-0.631c0.421-0.421 0.631-1.147 0.631-2.179v-15.395c0-1.032-0.21-1.758-0.631-2.179s-0.984-0.631-1.69-0.631-1.269 0.21-1.69 0.631c-0.421 0.421-0.631 1.147-0.631 2.179v15.395zM18.331 8.006c0-2.308 0.584-4.080 1.751-5.315s2.851-1.853 5.050-1.853c2.199 0 3.883 0.618 5.050 1.853s1.751 3.007 1.751 5.315v14.825c0 2.308-0.584 4.079-1.751 5.315s-2.851 1.853-5.050 1.853-3.883-0.618-5.050-1.853c-1.167-1.235-1.751-3.007-1.751-5.315v-14.825zM39.276 9.024v20.649h-4.032v-28.509h5.62l4.602 17.065v-17.065h3.991v28.509h-4.602l-5.58-20.649zM52.565 8.006c0-2.308 0.55-4.080 1.649-5.315s2.749-1.853 4.948-1.853 3.849 0.618 4.948 1.853c1.1 1.235 1.649 3.007 1.649 5.315v0.896h-4.236v-1.181c0-1.032-0.197-1.758-0.591-2.179s-0.943-0.631-1.649-0.631-1.256 0.21-1.649 0.631c-0.394 0.421-0.591 1.147-0.591 2.179 0 0.977 0.217 1.839 0.652 2.586s0.977 1.453 1.629 2.118c0.652 0.665 1.351 1.33 2.098 1.996s1.446 1.392 2.097 2.179c0.652 0.787 1.195 1.683 1.629 2.688s0.652 2.186 0.652 3.543c0 2.308-0.563 4.079-1.69 5.315s-2.79 1.853-4.989 1.853-3.862-0.618-4.989-1.853c-1.127-1.235-1.69-3.007-1.69-5.315v-1.751h4.236v2.036c0 1.032 0.211 1.751 0.631 2.159s0.984 0.611 1.69 0.611 1.269-0.204 1.69-0.611c0.421-0.407 0.631-1.127 0.631-2.159 0-0.977-0.217-1.839-0.652-2.586s-0.977-1.453-1.629-2.118c-0.652-0.665-1.351-1.33-2.097-1.996s-1.446-1.392-2.098-2.179c-0.652-0.787-1.195-1.683-1.629-2.688s-0.652-2.186-0.652-3.543zM67.523 1.164h13.847v4.073h-4.684v24.436h-4.48v-24.436h-4.684v-4.073zM93.153 29.673c-0.054-0.19-0.109-0.367-0.163-0.529s-0.102-0.367-0.143-0.611c-0.041-0.244-0.068-0.557-0.081-0.937s-0.020-0.855-0.020-1.425v-4.48c0-1.331-0.231-2.267-0.692-2.81s-1.208-0.815-2.24-0.815h-1.548v11.607h-4.48v-28.509h6.761c2.335 0 4.025 0.543 5.071 1.629s1.568 2.729 1.568 4.928v2.24c0 2.932-0.977 4.86-2.932 5.783 1.14 0.462 1.921 1.215 2.342 2.26s0.631 2.315 0.631 3.808v4.399c0 0.706 0.027 1.324 0.081 1.853s0.19 1.066 0.407 1.609h-4.561zM88.265 5.236v8.756h1.751c0.842 0 1.5-0.217 1.975-0.652s0.713-1.222 0.713-2.362v-2.81c0-1.032-0.183-1.778-0.55-2.24s-0.943-0.692-1.731-0.692h-2.159zM104.894 1.164v21.993c0 1.032 0.21 1.751 0.631 2.159s0.984 0.611 1.69 0.611c0.706 0 1.269-0.204 1.69-0.611s0.631-1.127 0.631-2.159v-21.993h4.236v21.708c0 2.308-0.563 4.079-1.69 5.315s-2.79 1.853-4.989 1.853-3.862-0.618-4.989-1.853c-1.127-1.235-1.69-3.007-1.69-5.315v-21.708h4.48zM129.528 1.164h13.847v4.073h-4.684v24.436h-4.48v-24.436h-4.684v-4.073z"></path>
<path fill="#00a4e5" style="fill: var(--color2, #00a4e5)" d="M115.9 15.979l11.636-14.545v29.091l-11.636-14.545z"></path>
</symbol>
<symbol id="icon-facebook" viewBox="0 0 32 32">
<path fill="#000" style="fill: var(--color3, #000)" d="M28 26.667c0 0.737-0.597 1.333-1.333 1.333h-21.333c-0.737 0-1.333-0.597-1.333-1.333v-21.333c0-0.737 0.597-1.333 1.333-1.333h21.333c0.737 0 1.333 0.597 1.333 1.333z"></path>
<path fill="#000" style="fill: var(--color3, #000)" opacity="0.05" d="M16.667 25.333v-7.333h-2.667v-4h2.667v-1.425c0-3.361 1.777-5.212 5.003-5.212 1.33 0 2.051 0.093 2.399 0.139l0.572 0.074 0.026 0.574v3.184h-2.423c-0.752 0-0.91 0.919-0.91 1.69v0.977h3.149l-0.619 4h-2.53v7.333z"></path>
<path fill="#000" style="fill: var(--color3, #000)" opacity="0.07" d="M17 25v-7.333h-2.667v-3.333h2.667v-1.759c0-3.192 1.615-4.879 4.67-4.879 1.314 0 2.020 0.092 2.36 0.136l0.291 0.038 0.013 0.295v2.835h-2.090c-1.082 0-1.243 1.267-1.243 2.023v1.31h3.093l-0.515 3.333h-2.579v7.333z"></path>
<path fill="#fff" style="fill: var(--color4, #fff)" d="M22.243 10.667h1.757v-2.503c-0.328-0.043-1.021-0.135-2.33-0.135-2.734 0-4.337 1.387-4.337 4.546v2.092h-2.667v2.667h2.667v7.333h3.333v-7.333h2.625l0.412-2.667h-3.037v-1.643c0-1.249 0.408-2.357 1.577-2.357z"></path>
</symbol>
<symbol id="icon-google" viewBox="0 0 32 32">
<path fill="#fff" style="fill: var(--color4, #fff)" d="M16.727 13.652v5.095h7.26c-0.949 3.087-3.529 5.296-7.26 5.296-4.443 0-8.044-3.601-8.044-8.043s3.601-8.043 8.044-8.043c1.997 0 3.821 0.732 5.228 1.937l3.752-3.752c-2.369-2.159-5.521-3.476-8.98-3.476-7.365 0-13.336 5.969-13.336 13.333s5.971 13.333 13.336 13.333c11.195 0 13.665-10.467 12.568-15.664z"></path>
</symbol>
<symbol id="icon-twitter" viewBox="0 0 32 32">
<path fill="#fff" style="fill: var(--color4, #fff)" d="M28 8.286c-0.882 0.391-1.831 0.651-2.831 0.775 1.017-0.604 1.8-1.567 2.167-2.705-0.952 0.558-2.007 0.968-3.129 1.184-0.896-0.95-2.174-1.539-3.59-1.539-2.72 0-4.925 2.185-4.925 4.88 0 0.381 0.045 0.753 0.129 1.113-4.092-0.205-7.721-2.151-10.149-5.103-0.427 0.721-0.667 1.566-0.667 2.457 0 1.694 0.867 3.185 2.19 4.064-0.807-0.025-1.567-0.249-2.233-0.609 0 0.015 0 0.037 0 0.057 0 2.367 1.698 4.339 3.949 4.787-0.411 0.113-0.846 0.175-1.294 0.175-0.318 0-0.628-0.036-0.928-0.090 0.627 1.935 2.445 3.349 4.599 3.391-1.685 1.307-3.808 2.089-6.116 2.089-0.399 0-0.789-0.023-1.174-0.069 2.181 1.381 4.77 2.19 7.549 2.19 9.057 0 14.011-7.437 14.011-13.889 0-0.211-0.007-0.422-0.017-0.63 0.967-0.683 1.8-1.544 2.458-2.528z"></path>
</symbol>
<symbol id="icon-logo" viewBox="0 0 143 32">
<path fill="#fff" style="fill: var(--color4, #fff)" d="M7.14 18.31l-1.385 2.606v8.756h-4.48v-28.509h4.48v12.422l5.865-12.422h4.48l-6.231 12.707 6.231 15.802h-4.602l-4.358-11.363zM22.424 23.116c0 1.032 0.21 1.758 0.631 2.179s0.984 0.631 1.69 0.631 1.269-0.21 1.69-0.631c0.421-0.421 0.631-1.147 0.631-2.179v-15.395c0-1.032-0.21-1.758-0.631-2.179s-0.984-0.631-1.69-0.631c-0.706 0-1.269 0.21-1.69 0.631s-0.631 1.147-0.631 2.179v15.395zM17.944 8.006c0-2.308 0.584-4.080 1.751-5.315s2.851-1.853 5.050-1.853c2.199 0 3.883 0.618 5.050 1.853s1.751 3.007 1.751 5.315v14.825c0 2.308-0.584 4.080-1.751 5.315s-2.851 1.853-5.050 1.853-3.883-0.618-5.050-1.853c-1.168-1.235-1.751-3.007-1.751-5.315v-14.825zM38.889 9.024v20.649h-4.032v-28.509h5.62l4.602 17.065v-17.065h3.991v28.509h-4.602l-5.58-20.649zM52.179 8.006c0-2.308 0.55-4.080 1.649-5.315s2.749-1.853 4.948-1.853c2.199 0 3.849 0.618 4.948 1.853s1.649 3.007 1.649 5.315v0.896h-4.236v-1.181c0-1.032-0.197-1.758-0.591-2.179s-0.943-0.631-1.649-0.631c-0.706 0-1.256 0.21-1.65 0.631s-0.59 1.147-0.59 2.179c0 0.977 0.217 1.839 0.652 2.586s0.978 1.453 1.629 2.118c0.652 0.665 1.351 1.33 2.098 1.996s1.446 1.392 2.097 2.179c0.652 0.787 1.195 1.683 1.629 2.688s0.652 2.186 0.652 3.543c0 2.308-0.563 4.080-1.69 5.315s-2.79 1.853-4.989 1.853c-2.199 0-3.862-0.618-4.989-1.853s-1.69-3.007-1.69-5.315v-1.751h4.236v2.036c0 1.032 0.21 1.751 0.631 2.158s0.984 0.611 1.69 0.611c0.706 0 1.269-0.204 1.69-0.611s0.631-1.127 0.631-2.158c0-0.978-0.217-1.84-0.652-2.586s-0.977-1.453-1.629-2.118c-0.652-0.665-1.351-1.331-2.097-1.996s-1.446-1.392-2.098-2.179c-0.652-0.787-1.195-1.683-1.629-2.688s-0.652-2.186-0.652-3.543zM67.137 1.164h13.847v4.073h-4.684v24.436h-4.48v-24.436h-4.684v-4.073zM92.766 29.673c-0.054-0.19-0.109-0.367-0.163-0.53s-0.102-0.366-0.142-0.611c-0.041-0.244-0.068-0.557-0.082-0.937s-0.020-0.855-0.020-1.426v-4.48c0-1.33-0.231-2.267-0.692-2.81s-1.208-0.815-2.24-0.815h-1.548v11.607h-4.48v-28.509h6.761c2.335 0 4.025 0.543 5.070 1.629s1.568 2.729 1.568 4.928v2.24c0 2.932-0.977 4.86-2.932 5.783 1.14 0.462 1.921 1.215 2.342 2.26s0.631 2.315 0.631 3.808v4.399c0 0.706 0.027 1.324 0.082 1.853s0.19 1.066 0.407 1.609h-4.562zM87.879 5.236v8.756h1.751c0.842 0 1.5-0.217 1.975-0.652s0.713-1.222 0.713-2.362v-2.81c0-1.032-0.183-1.778-0.55-2.24s-0.944-0.692-1.731-0.692h-2.159zM104.507 1.164v21.993c0 1.032 0.21 1.751 0.631 2.159s0.984 0.611 1.69 0.611c0.706 0 1.269-0.204 1.69-0.611s0.631-1.127 0.631-2.159v-21.993h4.236v21.708c0 2.308-0.563 4.080-1.69 5.315s-2.79 1.853-4.989 1.853c-2.199 0-3.862-0.618-4.989-1.853s-1.69-3.007-1.69-5.315v-21.708h4.48zM129.141 1.164h13.847v4.073h-4.684v24.436h-4.48v-24.436h-4.684v-4.073z"></path>
<path fill="#00a4e5" style="fill: var(--color2, #00a4e5)" d="M115.514 15.979l11.636-14.545v29.091l-11.636-14.546z"></path>
</symbol>
</defs>
</svg>
